<svg viewBox="0 0 116 34" version="1.1" xmlns="http://www.w3.org/2000/svg" xmlns:xlink="http://www.w3.org/1999/xlink">
    <defs>
        <polygon id="path-1" points="0 0 26.4518852 0 26.4518852 25.7321917 0 25.7321917"></polygon>
        <polygon id="path-3" points="0 0 31.8813934 0 31.8813934 25.7321917 0 25.7321917"></polygon>
        <polygon id="path-5" points="0 0 4.8601168 0 4.8601168 4.72836111 0 4.72836111"></polygon>
    </defs>
    <g id="Symbols" stroke="none" stroke-width="1" fill="none" fill-rule="evenodd">
        <g id="nav/mobile/dark-text" transform="translate(-156, -84)">
            <g id="Group-12" transform="translate(10, 68)">
                <g id="Group-14" transform="translate(146.0234, 16)">
                    <polygon id="Fill-1" fill="currentColor" points="21.3061066 0 21.3061066 20.3348333 7.50280738 0 0 0 0 33.2496389 7.45473361 33.2496389 7.45473361 12.9138611 21.209959 33.2496389 28.7608402 33.2496389 28.7608402 0"></polygon>
                    <g id="Group-13" transform="translate(29.7135, 0.0005)">
                        <g id="Group-4" transform="translate(0, 8.0948)">
                            <mask id="mask-2" fill="white">
                                <use xlink:href="#path-1"></use>
                            </mask>
                            <g id="Clip-3"></g>
                            <path d="M19.2379918,12.8661667 C19.2379918,9.39675 16.6891393,6.79433333 13.2259426,6.79433333 C9.76321721,6.79433333 7.21436475,9.39675 7.21436475,12.8661667 C7.21436475,16.3355833 9.76321721,18.938 13.2259426,18.938 C16.6891393,18.938 19.2379918,16.3355833 19.2379918,12.8661667 M0,12.8661667 C0,5.54152778 5.67506148,0 13.2259426,0 C20.7768238,0 26.4518852,5.54152778 26.4518852,12.8661667 C26.4518852,20.1908056 20.7768238,25.7323333 13.2259426,25.7323333 C5.67506148,25.7323333 0,20.1908056 0,12.8661667" id="Fill-2" fill="currentColor" mask="url(#mask-2)"></path>
                        </g>
                        <path d="M50.2020717,26.4543611 L51.6447561,26.4543611 L51.6447561,33.2491667 L49.3848176,33.2491667 C44.4308627,33.2491667 41.4969488,31.5623889 38.9000225,27.3218333 L36.7357602,24.3340833 L34.1864365,26.4543611 L34.1864365,33.2491667 L27.1648381,33.2491667 L27.1648381,0 L34.1864365,0 L34.1864365,17.9250833 L42.6031168,8.67330556 L51.6447561,8.67330556 L41.8339365,19.1297222 L45.488957,23.94875 C46.6912725,25.6355278 48.1820307,26.4543611 50.2020717,26.4543611" id="Fill-5" fill="currentColor"></path>
                        <g id="Group-9" transform="translate(51.0631, 8.0948)">
                            <mask id="mask-4" fill="white">
                                <use xlink:href="#path-3"></use>
                            </mask>
                            <g id="Clip-8"></g>
                            <path d="M19.2379918,12.8661667 C19.2379918,9.39675 16.688668,6.79433333 13.2259426,6.79433333 C9.81129098,6.79433333 7.26243852,9.39675 7.26243852,12.8661667 C7.26243852,16.3355833 9.81129098,18.938 13.2259426,18.938 C16.688668,18.938 19.2379918,16.3355833 19.2379918,12.8661667 L19.2379918,12.8661667 Z M31.8813934,18.3595278 L31.8813934,25.1538611 L26.7407992,25.1538611 C23.2776025,25.1538611 20.9691189,23.9492222 19.9110246,21.5881111 C18.0356762,24.1418889 15.2459836,25.7323333 11.831332,25.7323333 C5.09817623,25.7323333 0,20.1908056 0,12.8661667 C0,5.54152778 5.09817623,0 11.831332,0 C14.8613934,0 17.4102459,1.25280556 19.2379918,3.27675 L19.2379918,0.578472222 L26.2595902,0.578472222 L26.2595902,16.38375 C26.2595902,17.6365556 26.981168,18.3595278 28.2315574,18.3595278 L31.8813934,18.3595278 Z" id="Fill-7" fill="currentColor" mask="url(#mask-4)"></path>
                        </g>
                        <g id="Group-12" transform="translate(80.3919, 6.8405)">
                            <mask id="mask-6" fill="white">
                                <use xlink:href="#path-5"></use>
                            </mask>
                            <g id="Clip-11"></g>
                            <path d="M1.93567623,2.24116667 L2.4725,2.24116667 C2.84719262,2.24116667 2.98811475,2.04661111 2.98811475,1.83316667 C2.98811475,1.62586111 2.8542623,1.41855556 2.45836066,1.41855556 L1.93567623,1.41855556 L1.93567623,2.24116667 Z M1.54731557,3.63988889 L1.54731557,1.08847222 L2.48663934,1.08847222 C3.00932377,1.08847222 3.38401639,1.34725 3.38401639,1.82655556 C3.38401639,2.17647222 3.16485656,2.42863889 2.78356557,2.51316667 L3.52493852,3.63988889 L3.07295082,3.63988889 L2.36645492,2.53913889 L1.93567623,2.53913889 L1.93567623,3.63988889 L1.54731557,3.63988889 Z M2.43008197,0.304583333 C1.27866803,0.304583333 0.353483607,1.13994444 0.353483607,2.36394444 C0.353483607,3.58841667 1.27866803,4.41716667 2.43008197,4.41716667 C3.5814959,4.41716667 4.50715164,3.58841667 4.50715164,2.36394444 C4.50715164,1.13994444 3.5814959,0.304583333 2.43008197,0.304583333 L2.43008197,0.304583333 Z M2.43008197,4.72836111 C1.08778689,4.72836111 0,3.77588889 0,2.36394444 C0,0.952472222 1.08778689,0 2.43008197,0 C3.77237705,0 4.86016393,0.952472222 4.86016393,2.36394444 C4.86016393,3.77588889 3.77237705,4.72836111 2.43008197,4.72836111 L2.43008197,4.72836111 Z" id="Fill-10" fill="currentColor" mask="url(#mask-6)"></path>
                        </g>
                    </g>
                </g>
            </g>
        </g>
    </g>
</svg>